<?xml version="1.0" encoding="utf-8"?>
<!-- Generator: Adobe Illustrator 25.4.1, SVG Export Plug-In . SVG Version: 6.00 Build 0)  -->
<svg version="1.1" id="Layer_1" xmlns="http://www.w3.org/2000/svg" xmlns:xlink="http://www.w3.org/1999/xlink" x="0px" y="0px"
	 viewBox="0 0 2000 2000" style="enable-background:new 0 0 2000 2000;" xml:space="preserve">
<style type="text/css">
	.st0{fill:#51875B;}
</style>
<path class="st0" d="M1574.7,1325.7l-173.9-701.9c-14.1-46.1-55.7-84.5-105.7-85.5c0,0-58.7,0-139.2,0
	c76.4-52,127.1-142.7,127.1-245.9C1283,130.9,1159.1,0,1006.3,0C853.4,0,729.5,130.9,729.5,292.4c0,103.2,50.7,193.8,127.1,245.9
	c-88.7,0-155.4,0-155.4,0c-51-0.1-88.1,40.3-102,85.5c0,0-173.9,701.9-173.9,701.9c-16.2,70.6,38.9,115,104.4,121.3
	c51.5,11.4,104-21.1,116.7-72.3l85-343v871.6c0,52.7,43.1,95.9,95.9,95.9c49.8,0,102.9-21.1,128.7-65.8
	c15.7-27.2,12.4-56.1,12.4-86.3c0-77.6,0-155.1,0-232.7c0-37,0-74.1,0-111.1c0-40.2-11.3-85.1,18.1-118.6c15-17,37.1-11.5,49.9,5
	c17.1,21.9,10.5,54.9,10.1,80.6c-0.5,38.4,0,76.9,0,115.3c0,73.9,0,147.7,0,221.6c0,46.3-7.8,91.2,19.3,131.9
	c27.3,41,71.3,66.2,121.3,60.2c52.7,0,95.9-43.1,95.9-95.9v-813.3l70.5,284.7c12.7,51.2,65.2,83.8,116.7,72.3
	C1535.6,1440.5,1590.9,1396.6,1574.7,1325.7z"/>
</svg>
